<svg width="30" height="30" viewBox="0 0 30 30" fill="none" xmlns="http://www.w3.org/2000/svg">
<path d="M24.8079 6.99349C24.8079 5.99646 23.9998 5.19141 23.0065 5.19141C22.0131 5.19141 21.2043 5.99646 21.2043 6.99349C21.2043 7.98686 22.0131 8.79191 23.0065 8.79191C23.9998 8.79191 24.8079 7.98686 24.8079 6.99349Z" fill="url(#paint0_linear_1839_722)"/>
<path d="M27.2082 21.0606C27.1415 22.5232 26.8969 23.3178 26.6937 23.8456C26.4209 24.5454 26.0955 25.0458 25.5677 25.5706C25.0458 26.0955 24.5454 26.4202 23.8456 26.69C23.3178 26.8961 22.5201 27.1415 21.0576 27.2112C19.4764 27.2808 19.0078 27.2957 14.9981 27.2957C10.9921 27.2957 10.5199 27.2808 8.93864 27.2112C7.47608 27.1415 6.68211 26.8961 6.15426 26.69C5.4508 26.4202 4.95411 26.0955 4.4293 25.5706C3.90071 25.0458 3.57531 24.5454 3.30621 23.8456C3.10303 23.3178 2.85475 22.5232 2.79169 21.0606C2.71463 19.4794 2.70051 19.0035 2.70051 15.0019C2.70051 10.9922 2.71463 10.5199 2.79169 8.93869C2.85475 7.47614 3.10303 6.68217 3.30621 6.14987C3.57536 5.45085 3.90077 4.95338 4.42935 4.42857C4.95422 3.90448 5.45085 3.57902 6.15432 3.30626C6.68217 3.09943 7.47608 2.85773 8.93869 2.78809C10.5199 2.7184 10.9922 2.70056 14.9982 2.70056C19.0079 2.70056 19.4764 2.71834 21.0576 2.78809C22.5202 2.85773 23.3179 3.09943 23.8457 3.30626C24.5455 3.57902 25.0459 3.90448 25.5678 4.42857C26.0956 4.95343 26.421 5.45085 26.6938 6.14987C26.8969 6.68217 27.1415 7.47614 27.2083 8.93869C27.2817 10.5199 27.2994 10.9922 27.2994 15.0019C27.2994 19.0035 27.2816 19.4793 27.2082 21.0606ZM29.9088 8.81562C29.8354 7.21733 29.5834 6.1254 29.209 5.17433C28.828 4.18765 28.3172 3.35143 27.481 2.51522C26.6486 1.68278 25.8124 1.17197 24.8257 0.786488C23.8709 0.4158 22.7826 0.160763 21.1836 0.0911251C19.5846 0.0140625 19.0739 0 14.9982 0C10.9262 0 10.4117 0.0140625 8.81269 0.0911813C7.21739 0.160819 6.12985 0.415856 5.17062 0.786544C4.18765 1.17203 3.35143 1.68278 2.51899 2.51528C1.68278 3.35143 1.17203 4.18765 0.787275 5.17433C0.416588 6.1254 0.164588 7.21733 0.0874688 8.81562C0.017775 10.4146 0 10.9261 0 15.0019C0 19.0739 0.017775 19.5846 0.0874688 21.1836C0.164588 22.7789 0.416588 23.8701 0.787275 24.8257C1.17203 25.8086 1.68278 26.6486 2.51899 27.481C3.35143 28.3135 4.18765 28.828 5.17062 29.2127C6.12985 29.5834 7.21733 29.8354 8.81269 29.9088C10.4117 29.9822 10.9261 30 14.9982 30C19.0739 30 19.5846 29.9822 21.1836 29.9088C22.7827 29.8354 23.8709 29.5834 24.8257 29.2127C25.8124 28.828 26.6486 28.3135 27.4811 27.481C28.3173 26.6486 28.828 25.8086 29.2091 24.8257C29.5834 23.8701 29.8355 22.779 29.9089 21.1836C29.9823 19.5846 30.0001 19.0739 30.0001 15.0019C30 10.9261 29.9822 10.4146 29.9088 8.81562Z" fill="url(#paint1_linear_1839_722)"/>
<path d="M14.9982 19.9975C12.2383 19.9975 9.99878 17.7617 9.99878 15.0018C9.99878 12.2374 12.2383 9.99871 14.9982 9.99871C17.7589 9.99871 20.0013 12.2374 20.0013 15.0018C20.0013 17.7617 17.7588 19.9975 14.9982 19.9975ZM14.9982 7.29443C10.7438 7.29443 7.29822 10.7474 7.29822 15.0018C7.29822 19.2525 10.7438 22.7018 14.9982 22.7018C19.2525 22.7018 22.7018 19.2525 22.7018 15.0018C22.7018 10.7475 19.2525 7.29443 14.9982 7.29443Z" fill="url(#paint2_linear_1839_722)"/>
<defs>
<linearGradient id="paint0_linear_1839_722" x1="0.270257" y1="29.6884" x2="27.5009" y2="2.45765" gradientUnits="userSpaceOnUse">
<stop stop-color="#FFD521"/>
<stop offset="0.05" stop-color="#FFD521"/>
<stop offset="0.5011" stop-color="#F50000"/>
<stop offset="0.95" stop-color="#B900B4"/>
<stop offset="0.9501" stop-color="#B900B4"/>
<stop offset="1" stop-color="#B900B4"/>
</linearGradient>
<linearGradient id="paint1_linear_1839_722" x1="0.270822" y1="29.7273" x2="27.5239" y2="2.47423" gradientUnits="userSpaceOnUse">
<stop stop-color="#FFD521"/>
<stop offset="0.05" stop-color="#FFD521"/>
<stop offset="0.5011" stop-color="#F50000"/>
<stop offset="0.95" stop-color="#B900B4"/>
<stop offset="0.9501" stop-color="#B900B4"/>
<stop offset="1" stop-color="#B900B4"/>
</linearGradient>
<linearGradient id="paint2_linear_1839_722" x1="0.277745" y1="29.7282" x2="27.5243" y2="2.48169" gradientUnits="userSpaceOnUse">
<stop stop-color="#FFD521"/>
<stop offset="0.05" stop-color="#FFD521"/>
<stop offset="0.5011" stop-color="#F50000"/>
<stop offset="0.95" stop-color="#B900B4"/>
<stop offset="0.9501" stop-color="#B900B4"/>
<stop offset="1" stop-color="#B900B4"/>
</linearGradient>
</defs>
</svg>
