<svg width="30" height="30" viewBox="0 0 30 30" fill="none" xmlns="http://www.w3.org/2000/svg">
<g clip-path="url(#clip0_1839_719)">
<path d="M27.7833 6.31358e-05H2.21667C1.92636 -0.00213623 1.63848 0.0531466 1.36964 0.162722C1.1008 0.272297 0.856298 0.433995 0.650241 0.638504C0.444183 0.843012 0.280643 1.08628 0.169042 1.35429C0.0574409 1.6223 -8.33013e-06 1.90975 9.05969e-10 2.20006V27.8667C0.00878047 28.4473 0.246718 29.0009 0.661952 29.4067C1.07719 29.8126 1.63604 30.0379 2.21667 30.0334H27.7833C28.364 30.0379 28.9228 29.8126 29.338 29.4067C29.7533 29.0009 29.9912 28.4473 30 27.8667V2.20006C30 1.90975 29.9426 1.6223 29.831 1.35429C29.7194 1.08628 29.5558 0.843012 29.3498 0.638504C29.1437 0.433995 28.8992 0.272297 28.6304 0.162722C28.3615 0.0531466 28.0736 -0.00213623 27.7833 6.31358e-05ZM8.89999 25.5334H4.45V11.2167H8.89999V25.5334ZM6.68334 9.26673C5.99819 9.26673 5.34111 8.99455 4.85664 8.51009C4.37217 8.02562 4.1 7.36854 4.1 6.68339C4.09778 6.34353 4.16309 6.00661 4.29213 5.69218C4.42117 5.37776 4.61138 5.09209 4.85171 4.85177C5.09204 4.61144 5.3777 4.42124 5.69213 4.2922C6.00655 4.16315 6.34347 4.09785 6.68334 4.10006C7.0218 4.10005 7.35693 4.16699 7.66942 4.29702C7.98192 4.42705 8.2656 4.6176 8.50416 4.85771C8.74271 5.09781 8.93142 5.38273 9.05942 5.69605C9.18743 6.00938 9.2522 6.34493 9.25001 6.68339C9.25441 7.02404 9.19138 7.36219 9.06457 7.67839C8.93776 7.99458 8.74967 8.28257 8.51111 8.52577C8.27255 8.76898 7.98825 8.96259 7.67456 9.09548C7.36087 9.22836 7.024 9.29789 6.68334 9.30006V9.26673ZM25.5667 25.5334H21.1167V18.5667C21.1167 16.9001 21.1167 14.7667 18.8 14.7667C16.4833 14.7667 16.1333 16.5834 16.1333 18.4501V25.5334H11.7V11.2167H15.95V13.1667C16.3907 12.4355 17.0224 11.8381 17.777 11.4388C18.5317 11.0394 19.3808 10.8532 20.2333 10.9001C24.7333 10.9001 25.5667 13.8667 25.5667 17.7167V25.5334Z" fill="#0065A1"/>
</g>
<defs>
<clipPath id="clip0_1839_719">
<rect width="30" height="30" fill="white"/>
</clipPath>
</defs>
</svg>
