<svg width="74" height="84" viewBox="0 0 74 84" fill="none" xmlns="http://www.w3.org/2000/svg">
<path d="M37.0994 0L5.22014 18.3385C4.19488 19.0198 0.0357413 22.1246 0.00223587 27.644V43.0296L37.1999 21.4143L37.0994 0Z" fill="black"/>
<path d="M60.3901 34.8052C59.166 33.9184 56.021 31.2335 55.5497 26.7863L55.61 17.072C55.61 11.7849 51.8105 8.69125 50.5931 7.83575L37.0994 0L37.1999 21.4143L37.1396 36.782C37.1396 41.7452 40.4879 44.7741 41.9041 45.8351L55.2392 53.4765L74 42.6834L60.3901 34.8052Z" fill="black"/>
<path d="M36.8984 64.0262L55.7195 74.797L68.5654 67.3678C68.8513 67.1958 73.9576 64.0419 73.9933 57.926V42.6856L36.8961 64.0285L36.8984 64.0262Z" fill="black"/>
<path d="M42.0225 82.8672L55.7217 74.797L23.2237 56.1725C21.8076 55.1138 18.457 52.0827 18.457 47.1172L18.5508 32.1113L0 43.0273L0.01787 57.9237C0.0402069 63.7939 4.73543 66.9434 5.36757 67.3409L32.2568 82.9544C36.5142 85.0093 40.613 83.5128 42.0225 82.865V82.8672Z" fill="black"/>
<path d="M5.36752 67.3433C5.41219 67.3723 5.439 67.388 5.439 67.388L5.36752 67.3433Z" fill="black"/>
<path d="M36.8984 64.0262L55.7195 74.797L68.5654 67.3678C68.8513 67.1958 73.9576 64.0419 73.9933 57.926V42.6856L36.8961 64.0285L36.8984 64.0262Z" fill="black"/>
<path d="M42.0225 82.8672L55.7217 74.797L23.2237 56.1725C21.8076 55.1138 18.457 52.0827 18.457 47.1172L18.5508 32.1113L0 43.0273L0.01787 57.9237C0.0402069 63.7939 4.73543 66.9434 5.36757 67.3409L32.2568 82.9544C36.5142 85.0093 40.613 83.5128 42.0225 82.865V82.8672Z" fill="black"/>
<path d="M5.36752 67.3433C5.41219 67.3723 5.439 67.388 5.439 67.388L5.36752 67.3433Z" fill="black"/>
</svg>
