<svg width="465" height="528" viewBox="0 0 465 528" fill="none" xmlns="http://www.w3.org/2000/svg">
<path d="M233.119 1.03872L33.6514 115.872C27.2681 120.131 1.23212 139.567 1 174.102V270.429L233.738 135.076L233.119 1V1.03872ZM233.119 1.03872L317.533 50.0927C325.154 55.4743 348.908 74.8326 348.908 107.935L348.521 168.759C351.461 196.596 371.152 213.438 378.812 218.975H378.851L464 268.3M233.119 1.03872L233.738 135.114L233.351 231.325C233.351 262.415 254.281 281.386 263.178 288.006L346.625 335.86L464 268.3M464 268.3V363.736C463.768 402.027 431.813 421.772 430.033 422.856L349.604 469.355M464 268.3L232.012 401.915L232.608 402.257L349.604 469.355M349.604 469.355L263.913 519.872V519.919C255.093 523.945 229.444 533.315 202.827 520.461L34.5799 422.701C30.6339 420.224 1.23212 400.478 1.11606 363.736L1 270.468L117.021 202.955L116.441 296.059C116.441 327.149 137.409 346.12 146.268 352.74L349.604 469.355Z" stroke="black"/>
</svg>
